<svg version="1.1" id="Layer_1" xmlns="http://www.w3.org/2000/svg" xmlns:xlink="http://www.w3.org/1999/xlink" x="0px" y="0px"
	 width="100%" viewBox="0 0 741 762" enable-background="new 0 0 741 762" xml:space="preserve">
<path fill="#FFFFFF" opacity="1.000000" stroke="none" 
	d="
M742.000000,280.000000 
	C742.000000,441.333344 742.000000,602.166687 742.000000,763.000000 
	C495.000000,763.000000 248.000000,763.000000 1.000000,763.000000 
	C1.000000,509.000000 1.000000,255.000000 1.000000,1.000000 
	C248.000000,1.000000 495.000000,1.000000 742.000000,1.000000 
	C742.000000,93.833336 742.000000,186.666672 742.000000,280.000000 
M421.926788,735.492004 
	C426.257935,735.494446 430.615387,735.794189 434.912750,735.414490 
	C439.085571,735.045837 441.573090,736.688416 443.947296,739.987549 
	C449.059631,747.091492 454.614563,753.876892 460.051514,760.873962 
	C553.207397,688.750122 645.833984,617.036072 738.725586,545.116760 
	C733.459534,538.241821 728.451416,531.703491 723.394836,525.101990 
	C727.813599,518.687439 732.022217,512.577881 736.398865,506.224457 
	C657.604187,451.293213 579.088562,396.556488 500.381165,341.686096 
	C548.198120,296.737579 595.629822,252.151108 643.333801,207.308731 
	C581.970642,139.010544 520.806213,70.933617 459.576050,2.783474 
	C453.376099,8.300596 447.538483,13.495281 441.605560,18.774744 
	C436.555725,14.213364 431.640045,9.773168 426.577759,5.200525 
	C373.346405,63.303864 320.303925,121.201035 267.242157,179.119263 
	C266.136261,178.359482 265.453278,177.896072 264.776154,177.424210 
	C200.375137,132.543549 136.022598,87.592964 71.505508,42.879787 
	C64.442291,37.984665 57.795280,33.639530 60.011639,23.571720 
	C60.057934,23.361422 59.692356,23.060450 59.281586,22.447792 
	C49.991508,22.558655 39.966778,24.319864 32.474285,14.764505 
	C30.028126,22.185797 25.086710,23.214445 19.097889,22.563904 
	C15.835388,22.209513 12.502765,22.500658 9.427319,22.500658 
	C6.666456,34.440918 13.454752,47.413197 2.736784,57.960342 
	C9.378567,59.765942 8.871380,64.525955 8.870421,69.314903 
	C8.826398,289.313232 8.832184,509.311554 8.832193,729.309875 
	C8.832194,731.250488 8.832191,733.191101 8.832191,735.284668 
	C26.163252,735.284668 42.939205,735.284668 60.160667,735.284668 
	C60.160667,522.862671 60.160667,310.654755 60.160667,97.465767 
	C117.928581,137.735840 174.935623,177.475494 232.188110,217.386246 
	C193.979248,259.107025 156.237152,300.318115 118.332123,341.707123 
	C131.159637,353.445953 143.625458,364.853790 156.228439,376.387115 
	C195.934982,333.047485 235.266556,290.117096 274.680603,247.096680 
	C276.822327,248.541092 278.623749,249.720825 280.389343,250.951935 
	C325.273193,282.248993 370.122620,313.595734 415.093842,344.766815 
	C418.599579,347.196747 420.048065,349.541840 420.043060,353.940887 
	C419.900269,479.273132 419.923462,604.605530 419.972626,729.937927 
	C419.973328,731.770020 420.643616,733.601929 421.926788,735.492004 
z"/>
<path fill="#5680e9" opacity="1.000000" stroke="none" 
	d="
M421.464111,735.462952 
	C420.643616,733.601929 419.973328,731.770020 419.972626,729.937927 
	C419.923462,604.605530 419.900269,479.273132 420.043060,353.940887 
	C420.048065,349.541840 418.599579,347.196747 415.093842,344.766815 
	C370.122620,313.595734 325.273193,282.248993 280.389343,250.951935 
	C278.623749,249.720825 276.822327,248.541092 274.680603,247.096680 
	C235.266556,290.117096 195.934982,333.047485 156.228439,376.387115 
	C143.625458,364.853790 131.159637,353.445953 118.332123,341.707123 
	C156.237152,300.318115 193.979248,259.107025 232.188110,217.386246 
	C174.935623,177.475494 117.928581,137.735840 60.160667,97.465767 
	C60.160667,310.654755 60.160667,522.862671 60.160667,735.284668 
	C42.939205,735.284668 26.163252,735.284668 8.832191,735.284668 
	C8.832191,733.191101 8.832194,731.250488 8.832193,729.309875 
	C8.832184,509.311554 8.826398,289.313232 8.870421,69.314903 
	C8.871380,64.525955 9.378567,59.765942 2.736784,57.960342 
	C13.454752,47.413197 6.666456,34.440918 9.427319,22.500658 
	C12.502765,22.500658 15.835388,22.209513 19.097889,22.563904 
	C25.086710,23.214445 30.028126,22.185797 32.474285,14.764505 
	C39.966778,24.319864 49.991508,22.558655 59.281586,22.447792 
	C59.692356,23.060450 60.057934,23.361422 60.011639,23.571720 
	C57.795280,33.639530 64.442291,37.984665 71.505508,42.879787 
	C136.022598,87.592964 200.375137,132.543549 264.776154,177.424210 
	C265.453278,177.896072 266.136261,178.359482 267.242157,179.119263 
	C320.303925,121.201035 373.346405,63.303864 426.577759,5.200525 
	C431.640045,9.773168 436.555725,14.213364 441.605560,18.774744 
	C447.538483,13.495281 453.376099,8.300596 459.576050,2.783474 
	C520.806213,70.933617 581.970642,139.010544 643.333801,207.308731 
	C595.629822,252.151108 548.198120,296.737579 500.381165,341.686096 
	C579.088562,396.556488 657.604187,451.293213 736.398865,506.224457 
	C732.022217,512.577881 727.813599,518.687439 723.394836,525.101990 
	C728.451416,531.703491 733.459534,538.241821 738.725586,545.116760 
	C645.833984,617.036072 553.207397,688.750122 460.051514,760.873962 
	C454.614563,753.876892 449.059631,747.091492 443.947296,739.987549 
	C441.573090,736.688416 439.085571,735.045837 434.912750,735.414490 
	C430.615387,735.794189 426.257935,735.494446 421.464111,735.462952 
M667.011230,520.512207 
	C601.936279,475.139740 536.861389,429.767242 471.587891,384.256287 
	C471.587891,485.515106 471.587891,585.861206 471.587891,686.950928 
	C540.492798,633.606628 608.773193,580.745789 677.327698,527.672729 
	C673.828796,525.256470 670.707703,523.101135 667.011230,520.512207 
M357.450470,242.034409 
	C378.083130,256.421295 398.715759,270.808167 419.531555,285.322754 
	C419.531555,219.557938 419.531555,154.580429 419.531555,88.942863 
	C382.661377,129.201874 346.303253,168.901794 309.768311,208.794754 
	C325.769196,219.972763 341.300018,230.822433 357.450470,242.034409 
M498.499695,273.000458 
	C522.793396,250.127792 547.087158,227.255127 571.518311,204.253052 
	C538.126343,167.091187 505.075745,130.309189 471.358246,92.784996 
	C471.358246,161.787018 471.358246,229.592438 471.358246,298.377716 
	C480.621887,289.710754 489.298553,281.592957 498.499695,273.000458 
z"/>
<path fill="#FFFFFF" opacity="1.000000" stroke="none" 
	d="
M667.298950,520.729004 
	C670.707703,523.101135 673.828796,525.256470 677.327698,527.672729 
	C608.773193,580.745789 540.492798,633.606628 471.587891,686.950928 
	C471.587891,585.861206 471.587891,485.515106 471.587891,384.256287 
	C536.861389,429.767242 601.936279,475.139740 667.298950,520.729004 
z"/>
<path fill="#FFFFFF" opacity="1.000000" stroke="none" 
	d="
M357.140686,241.853241 
	C341.300018,230.822433 325.769196,219.972763 309.768311,208.794754 
	C346.303253,168.901794 382.661377,129.201874 419.531555,88.942863 
	C419.531555,154.580429 419.531555,219.557938 419.531555,285.322754 
	C398.715759,270.808167 378.083130,256.421295 357.140686,241.853241 
z"/>
<path fill="#FFFFFF" opacity="1.000000" stroke="none" 
	d="
M498.237427,273.237793 
	C489.298553,281.592957 480.621887,289.710754 471.358246,298.377716 
	C471.358246,229.592438 471.358246,161.787018 471.358246,92.784996 
	C505.075745,130.309189 538.126343,167.091187 571.518311,204.253052 
	C547.087158,227.255127 522.793396,250.127792 498.237427,273.237793 
z"/>
</svg>