<svg version="1.1" id="Layer_1" xmlns="http://www.w3.org/2000/svg" xmlns:xlink="http://www.w3.org/1999/xlink" x="0px" y="0px"
	 width="100%" viewBox="0 0 1024 928" enable-background="new 0 0 1024 928" xml:space="preserve">
<path fill="#5680e9" opacity="1.000000" stroke="none" 
	d="
M227.978333,778.126404 
	C218.649536,778.119751 209.816223,778.117737 200.982895,778.106873 
	C193.911148,778.098145 193.861954,778.044678 193.858841,770.735596 
	C193.855789,763.568970 193.858032,756.402283 193.857635,749.235657 
	C193.847519,564.569031 193.839920,379.902435 193.810333,195.235809 
	C193.809692,191.195160 194.847183,186.805771 190.311707,184.062973 
	C189.157166,183.364746 189.386703,181.808105 190.283127,180.951233 
	C194.747009,176.684204 193.640945,171.198730 193.872391,165.937042 
	C194.067596,161.499222 191.966553,156.097183 194.950729,152.873947 
	C197.835968,149.757614 203.183548,151.936554 207.432465,151.747009 
	C210.137741,151.626328 211.787277,150.491089 213.045975,148.334198 
	C214.228668,146.307526 215.864212,145.163589 217.832962,147.129776 
	C222.582031,151.872574 228.445053,152.200104 234.534119,151.626892 
	C238.776459,151.227539 240.932251,152.692245 240.292435,157.207916 
	C239.739685,161.109116 241.404114,163.538406 244.694305,165.823334 
	C301.352356,205.170654 357.918579,244.650177 414.492615,284.118378 
	C421.008575,288.664185 420.926941,288.669403 426.150787,282.970245 
	C459.360565,246.738892 492.601196,210.535858 525.813049,174.306442 
	C536.168518,163.010101 546.570801,151.753403 556.725952,140.278839 
	C559.714478,136.902023 561.835510,136.690903 565.227844,139.745605 
	C574.247192,147.867294 574.364563,147.736938 583.529175,139.556656 
	C590.012756,133.769440 589.886230,133.882614 595.680420,140.361282 
	C618.004517,165.322906 640.420166,190.202652 662.795288,215.118668 
	C691.512512,247.097015 720.203735,279.098755 748.977234,311.026367 
	C751.145203,313.432037 751.083008,315.016937 748.743225,317.210785 
	C728.082520,336.582703 707.510742,356.049347 686.888428,375.462280 
	C671.118469,390.307434 655.296936,405.097900 639.535339,419.951904 
	C635.551941,423.705902 631.122498,427.020050 627.667969,431.624786 
	C628.981262,434.419861 631.834045,435.342834 634.061890,436.899231 
	C677.768982,467.433685 721.506287,497.924896 765.240967,528.419922 
	C786.700012,543.382812 808.143311,558.368530 829.656921,573.252625 
	C832.412109,575.158813 833.160767,576.929871 831.019714,579.739136 
	C828.799622,582.652161 826.900024,585.811584 824.646667,588.696350 
	C822.493652,591.452576 822.216492,593.787659 824.714417,596.598694 
	C827.584412,599.828491 829.879456,603.566711 832.723267,606.822876 
	C835.051819,609.488953 834.732239,611.121887 831.948120,613.252319 
	C814.487122,626.613953 797.133911,640.116638 779.754395,653.584717 
	C717.991089,701.447754 656.213501,749.292297 594.519714,797.244751 
	C591.119080,799.887939 589.127380,800.108215 586.584351,796.284058 
	C583.362427,791.439026 579.359009,787.117798 576.066101,782.314636 
	C573.806580,779.018799 571.059570,778.044556 567.210815,778.090332 
	C554.618103,778.239990 554.624573,778.118958 554.624695,765.437988 
	C554.625977,658.771362 554.619019,552.104736 554.643066,445.438141 
	C554.643982,441.535004 554.550293,438.214661 550.627625,435.506439 
	C511.415344,408.433594 472.299316,381.220154 433.308167,353.829956 
	C429.014557,350.813812 426.510895,351.462341 423.268738,355.032410 
	C402.550079,377.846497 381.711670,400.552002 360.873840,423.257568 
	C349.611786,435.528992 338.223694,447.685059 327.008118,459.998566 
	C324.639343,462.599274 322.871338,462.520538 320.381439,460.205688 
	C311.229736,451.697510 302.019409,443.248047 292.658447,434.971802 
	C289.740753,432.392212 290.763458,430.731842 292.864441,428.447601 
	C315.985413,403.309784 339.043274,378.113861 362.116638,352.932251 
	C369.769043,344.580658 377.427856,336.234894 385.055450,327.860718 
	C386.268677,326.528809 387.660187,325.282410 388.458557,322.541901 
	C339.640656,288.517975 290.666565,254.385193 241.235352,219.933807 
	C239.792496,224.090561 240.311020,227.590942 240.310257,230.998627 
	C240.273346,396.165253 240.271347,561.331848 240.266602,726.498474 
	C240.266174,741.331787 240.269745,756.165100 240.278717,770.998413 
	C240.283005,778.099976 240.290695,778.101135 232.972031,778.129639 
	C231.472656,778.135498 229.973221,778.128418 227.978333,778.126404 
M751.936890,616.409546 
	C760.907166,609.455261 769.877441,602.500977 779.246277,595.237671 
	C777.132751,593.604065 775.998047,592.648865 774.787048,591.802917 
	C760.176697,581.596436 745.559998,571.399170 730.935608,561.212952 
	C691.021790,533.412048 651.117126,505.597961 611.155762,477.865570 
	C608.548035,476.055878 605.980652,472.175964 602.640930,473.910797 
	C599.292786,475.649963 600.987305,479.994629 600.974365,483.167084 
	C600.640808,564.635620 601.428040,646.106445 600.484070,727.574158 
	C600.465515,729.174255 600.309998,730.937317 602.580872,732.094360 
	C652.115662,693.729797 701.746033,655.291199 751.936890,616.409546 
M544.748291,374.714783 
	C547.558167,376.386566 549.732605,379.157562 553.230042,379.733215 
	C554.614441,377.968628 554.619385,375.959564 554.619873,373.984650 
	C554.632507,322.492310 554.636047,270.999939 554.605042,219.507614 
	C554.604065,217.792923 555.101440,215.715317 551.942383,214.579895 
	C521.499390,247.817764 490.863892,281.265747 459.580353,315.421295 
	C488.211456,335.349884 516.187988,354.822876 544.748291,374.714783 
M658.545227,338.033356 
	C666.362549,330.784973 674.221558,323.580902 681.981812,316.271973 
	C686.804688,311.729584 686.730286,311.209900 682.243896,306.210602 
	C656.657227,277.698517 631.083313,249.174957 605.487793,220.670776 
	C604.434692,219.497940 603.610779,217.815720 601.433655,218.236221 
	C601.433655,275.551483 601.433655,332.834534 601.433655,390.117615 
	C601.898682,390.264130 602.363647,390.410675 602.828674,390.557190 
	C621.232849,373.213501 639.637085,355.869812 658.545227,338.033356 
z"/>
</svg>