<?xml version='1.0' encoding='utf-8'?>
<svg xmlns="http://www.w3.org/2000/svg" version="1.1" id="Layer_1" x="0px" y="0px" viewBox="0 0 5000 840.5644" enable-background="new 0 0 5000 840.5644" fill="#ff6f3c"> <g> <path d="M1077.6809,380.607c-19.3489-3.6985-33.851,5.137-43.197,26.3198c-11.9886,27.174-10.397,42.424,6.2926,60.2901 c-0.5056-0.5056,11.963,15.6466,30.4403,15.6466c15.6982,0,21.6243-3.2668,41.1055-22.6557 C1133.3236,439.3055,1110.5105,386.8824,1077.6809,380.607z M1095.6848,451.6281c-6.6228,6.6229-37.3073,8.3184-41.0193,2.2668 c-2.3856-3.8898-4.7964-29.1297-3.8492-40.3041c0.6931-8.1732,36.7445-8.3762,44.8685-0.2521 C1103.5676,421.2229,1103.6071,443.7059,1095.6848,451.6281z"/> <path d="M1008.5276,424.9264c-916.7888,1.4377-998.3467,5.2889-997.8408,5.2889c-14.4869,0-14.0092,21.462,0,21.462 c207.2242,0-131.1793,3.8625,497.8167,2.1199c269.4717-0.746,492.9413-2.4366,496.5986-3.7557 C1012.8765,447.2378,1009.6787,433.0351,1008.5276,424.9264z"/> <path d="M4994.2432,418.3773c-11.5479-11.5462,23.4282-8.7699-946.4209-1.599c-8.7368-10.3826-21.8435-27.9922-36.6653-31.712 c-15.729-3.947-40.9197,8.3835-45.2959,22.1729c-4.0996,12.9167-8.6968,12.774-20.6484-0.6396 c-17.1084-19.2007-38.5144-24.5099-98.8606-24.4595c-129.2344,0.0798-162.9172,39.8191-185.7158,32.5823 c-12.0527-3.8253-84.2664-57.3369-97.3552-72.1416c-9.0779-10.2685-33.2253-15.3299-33.2253-6.9636 c0,7.5583-53.8137,61.6019-61.3394,61.6019c-4.1973,0-11.6184-4.4058-16.4917-9.7906c-8.5244-9.4198-8.2698-10.4204,6.7532-26.4496 c8.5879-9.1628,15.637-21.315,15.637-27.0061c0.0349-15.6085-30.5061-42.4172-52.363-45.9639 c-16.6245-2.6974-20.9194-1.0074-37.3577,14.7002c-29.064,27.773-37.2673,30.5405-70.4553,23.7676 c-15.7998-3.2238-33.2605-7.7421-38.8022-10.0397c-31.4888-13.0551-152.1938-18.7222-209.0776-9.8153 c-73.4417,11.4997-108.5337,23.3279-177.2051,59.7274c-26.8044,14.2076-52.1218,25.8321-56.2593,25.8321 c-9.6255,0-75.8948-64.3179-88.7786-76.438l-25.3086,23.9619c-49.8792,47.2236-49.5022,88.5785-71.9407,53.7042 c-10.6497-16.5536-32.6445-47.8179-43.9148-63.9493c15.1289-15.7672,70.4419-70.2552,70.4419-91.9376 c0-14.2123-25.2603-34.597-25.0222-43.3428c0.3206-11.5526,18.012-27.2755,37.8281-33.6191 c24.8408-7.9518,28.6667-11.3737,24.5886-22.0001c-8.4976-22.1416-61.0449-17.3868-78.5891,38.7918 c-6.9509,22.2596-4.1699,23.0208,17.6318,64.116c-12.6423,13.4091-33.5371,35.1039-45.2646,50.7867 c-5.5239,7.386-12.3289,11.9204-15.1221,10.076c-7.2446-4.7822-52.0769-67.4579-52.0769-72.8021 c0-2.452,15.9202-22.9684,35.3779-45.593c13.752-15.9895,46.6885-44.8074,35.9717-68.9732 c-7.4033-16.6946-22.6873-32.7296-33.4211-47.5595c-15.6726-15.6715-27.3647-38.1953-40.5706-56.0467 c-6.1118-8.2618-7.6658-13.6285-17.8315-10.4097c-8.0049,2.535-16.2107,15.7653-20.6152,22.1994 c-34.3018,50.111-34.8689,33.5473-60.6672,90.7581c66.532,103.6418,72.771,101.8253,59.3979,121.7235 c-2.7866,4.1463-47.9375,64.4579-49.9453,62.45c-8.6401-10.6701-16.8669-19.7512-36.0417-52.4687 c-15.429-26.3253-16.6533-31.399-14.1748-58.7323c2.4333-26.8339,1.4795-31.0878-9.2515-41.2604 c-21.0676-19.9713-45.8464-25.6931-61.2876-14.1528c-12.6584,9.461-3.2527,19.1355,20.7393,21.3316 c11.4807,1.051,23.176,3.3333,25.989,5.0712c6.5908,4.0731,6.6462,26.214,0.0757,30.2748 c-8.7908,5.4328-5.4077,34.621,6.1316,52.8992c25.1558,39.8476,14.2891,24.8022,50.0061,74.6311 c-21.1985,32.0394-21.5413,34.1625-65.1909,82.9667c-11.3164-17.9265-23.1223-35.5988-41.4148-73.1158 c-16.21-33.2452-39.1272-56.3087-51.2761-51.6034c-3.615,1.4004-12.0884,10.6246-18.8306,20.4983 c-14.3455,21.0086-46.6313,47.3185-65.6589,63.5742c-108.2815-39.5038-119.2083-45.342-146.4425-50.2086 c-92.7195-16.5679-224.8503-13.9791-311.0808,27.6175c-26.5363,12.8011-26.6508,12.8097-47.0021,3.6321 c-30.2792-13.6552-47.066-37.3245-64.4769-37.4561c-15.4055-0.1027-65.9597,38.5188-65.9597,50.39 c0,8.4574,22.2904,30.8289,43.3053,43.4621c9.282,5.5811,9.2156,6.1278-2.0375,16.8459 c-16.2278,15.4547-29.118,10.8362-69.9836-25.0775c-18.8428-16.5599-36.854-30.1451-40.0243-30.1955 c-9.9357-0.1503-20.9954,21.4768-69.6909,45.1989c-30.9722,15.0888-32.907,15.4049-47.6373,7.7876 c-22.8475-11.8146-107.4225-27.8837-146.7579-27.8837c-55.7882,0-59.3864,10.968-87.2181,51.1273 c7.0004,12.9994,16.8337,34.1909,31.8602,41.8225c35.0748,17.8108,118.1959,13.0932,181.7319-10.3146 c18.0703-6.6573,38.6074-12.1037,45.6387-12.1037c13.5341,0,60.1609,25.893,91.2457,50.6704 c10.2279,8.153,21.989,14.8238,26.134,14.8238c11.0188,0,52.604-55.3755,63.5858-55.2423 c9.1713,0.057,25.5562,14.2654,32.7472,19.9454c-22.9783,22.2078-52.8992,47.8965-52.8992,63.5945 c0,10.1203,4.9833,14.7899,26.4496,24.7836c41.5033,19.3224,54.8646,17.0833,91.1362-15.2739 c52.9512-47.2372,36.3842-20.1738,148.8656-5.6893c182.1855,23.4589,305.817-52.2706,315.163-52.2706 c6.9558,0,48.271-32.5512,65.8767-28.1328c6.0996,1.5313,27.0457,17.5562,46.5464,35.6105s36.8879,32.8264,38.6382,32.8264 c4.1597,0,30.6709-30.2638,54.7754-62.5281c20.4546-27.3782,31.8911-31.7674,40.55-15.5612 c6.6729,12.4904,31.6929,50.5318,40.1399,63.5207c-103.9822,108.5925-62.0593,65.8768-62.0593,124.4941 c0,22.1335-10.1067,32.0638-39.1184,38.4357c-26.8372,5.8947-17.6946,27.9698,11.5845,27.9698 c29.6206,0,61.4956-52.2866,47.6479-78.1606c-6.0725-11.3456,0.0256-25.1848,6.4888-34.8771 c3.7791-5.6681,43.6206-65.2805,52.1665-56.7346c1.5957,1.5963,53.0439,82.9105,47.1035,94.2032 c-2.1863,4.1561-18.2104,23.0892-35.6086,42.0722c-26.5037,28.9188-30.6831,35.8626-25.7749,42.8231 c14.5942,20.7016,19.553,45.9432,54.5325,88.8867c12.4285,15.2567,25.3801,27.7392,28.7825,27.7392 c10.3545,0,78.907-85.276,78.907-98.1564c0-23.6542-60.4561-94.3397-60.4561-105.4724c0-7.4808,53.4326-65.2398,56.8013-74.462 c3.4285-9.3835,9.9714-1.8647,31.2114,35.8651c14.6492,26.051,17.5161,35.3657,14.6492,47.8611 c-7.5098,32.7268-0.989,55.3641,22.1125,76.7744c27.3782,25.3734,79.6987,5.8572,75.7258-28.246 c-2.0073-17.2327-19.7676-20.0444-26.6882-4.225c-7.2871,16.6564-34.0723,18.5204-44.8582,3.121 c-8.988-12.8324-10.7314-37.2089-3.0029-41.9855c18.5952-11.493-20.2126-82.1458-34.7156-95.2438 c-14.2593-12.8785-13.3811-24.425,3.228-42.4387c21.2805-23.0789,35.6558-46.205,41.9294-46.205 c6.4614,0,39.4641,58.4674,48.2585,67.7414c3.1904,3.3646,11.9302,17.8378,19.4207,32.1628 c16.6658,31.8726,27.6292,33.5146,45.3169,6.787c7.0098-10.592,25.4736-30.2477,41.0317-43.6797 c27.302-23.5708,28.834-24.1969,44.0039-17.9947c110.1045,45.0192,154.7395,55.2208,245.498,56.1107 c81.8972,0.8026,146.9155-11.707,218.5269-42.0458c28.3015-11.9893,31.085-12.2968,45.3423-5.0024 c23.7607,12.1559,56.8333,46.681,74.0369,46.681c14.8245,0,54.5088-38.7512,54.5088-53.2263 c0-17.9844-42.0972-50.9337-51.9792-58.8799c6.6094-5.0809,22.7593-18.6363,31.0916-18.7702 c10.0444-0.1646,94.4775,88.6146,101.1895,86.9408c2.4546-0.6119,13.1621-9.1904,23.7954-19.0641 c26.0032-24.1446,61.9199-47.8365,72.5205-47.8365c21.2524,0,52.2061,36.5255,163.7268,38.4819 c22.2664,0.3908,50.1174,2.071,71.6692-4.3594c12.2017-3.6404,41.407-22.1474,41.407-36.8666 c0-14.039,10.5281-12.2543,27.4336,4.6512c16.4312,16.4313,18.5012,17.1497,33.4031,11.5834 c18.1958-6.7965,29.0239-21.3136,37.4045-31.1241c855.5386,2.3314,942.3472,3.7812,949.854-5.2649 C5001.6934,428.2855,5001.3394,425.4719,4994.2432,418.3773z M1331.8252,443.3884c-30.3446,5.8784-59.6123,11.7394-87.4962,12.643 c-47.2609,1.532-62.3147,0.3142-73.3248-5.9328c-18.1582-10.303-17.4904-18.3169,2.519-30.225 c36.0906-21.4766,169.6473,0.5137,178.3722,9.1941C1359.7255,436.8578,1342.6606,441.2895,1331.8252,443.3884z M1529.9485,469.6818 c1.3289-1.3288-19.9633,18.2219-28.9679,17.9313c-10.6382-0.3475-81.9249-50.5284-81.8745-57.6493 c0.0116-2.7706,6.2083-7.1007,13.7703-9.6209c16.1891-5.3977,39.4877-23.2279,53.1901-33.1536 c11.0828,10.216,39.9711,37.7996,53.246,44.9049C1554.9031,440.4383,1552.75,449.0826,1529.9485,469.6818z M1877.1219,325.845 c56.1217-5.0891,93.4517-3.1961,157.8641,8.0066c39.3872,6.8498,129.7664,37.4413,129.7664,43.9233 c0,1.9292-7.6357,8.2261-16.9683,13.9935c-15.8545,9.7986-38.4795,13.8164-44.4097,7.8854 c-1.332-1.3319-130.6488-53.173-256.017-26.024c-26.3235,5.7016-56.3,9.9985-66.6141,9.5453 c-20.8236-0.9108-54.2982-13.2574-54.2982-20.0278C1726.4452,354.8246,1824.0703,330.6561,1877.1219,325.845z M1852.3962,462.7121 c0-2.7712,2.0355-5.038,4.5232-5.038c5.8677,0,155.7111-24.4589,170.5477-27.8382c14.6949-3.3483,15.2542-17.4064,0-17.7948 c-17.3065-0.4434-119.4069-9.6584-143.5551-12.956c-37.7101-5.1493-17.4277-11.9554,35.5348-11.905 c76.1459,0.0566,177.7308,18.7991,173.3368,31.9808c-1.5344,4.6026-33.8782,17.1361-84.2097,32.6302 C1976.6298,461.6261,1852.3962,474.8399,1852.3962,462.7121z M1829.8757,447.5568c-20.7633,5.5645-41.7604,9.8522-46.6606,9.5299 c-17.8298-1.1734-61.8085-17.0562-61.8085-22.3211c0-2.9729,14.25-10.2956,31.6665-16.2727 c27.214-9.3399,36.2458-10.2212,64.2347-6.2674C1923.8137,427.2693,1938.2089,418.5275,1829.8757,447.5568z M1739.6165,392.1793 c24.0447,0-19.0586,22.6446-16.3298,19.9159c-27.3967,12.119-39.7014,12.6215-58.5565,2.3923 c-17.4866-9.4862-17.3544-12.7875,1.0554-26.3985C1701.147,361.9447,1719.829,392.1793,1739.6165,392.1793z M1595.728,367.2216 l-21.8838-18.6607l17.6981-10.9377c18.6804-11.5452,34.142-14.2629,34.142-6.0023c0,2.7146,9.0686,9.5613,20.1521,15.2161 c19.454,9.9241,27.4606,25.1901,13.2118,25.1901c-3.8167,0-9.5269,3.1174-12.6891,6.9272 C1645.6663,378.9545,1634.1183,399.9575,1595.728,367.2216z M1590.4188,442.7642c0-5.6247,24.7054-25.3948,31.7336-25.3948 c8.9702,0,43.8365,16.8588,43.8365,21.1957c0,5.1095-29.9113,24.1785-40.3041,23.9263 C1615.3285,462.2404,1590.4188,448.3071,1590.4188,442.7642z M1662.1995,530.0795c-15.1189,7.8198-23.4515,18.28-23.4515,17.7622 c-11.5895,12.806-36.2556,13.948-52.6863,2.4397l-11.6388-8.1517c46.5168-48.0127,48.2086-53.5143,79.2928-40.7321 C1679.4432,511.9772,1681.7999,519.9438,1662.1995,530.0795z M1677.5472,491.2963c-26.2872-9.6252-29.2885-15.7192-13.7568-27.9366 c7.4987-5.8984,18.0802-10.7242,23.5149-10.7242c13.9227,0,64.3577,15.1251,64.1917,19.2505 c-0.1144,2.8432-22.6145,15.2699-22.6145,14.7555C1703.696,499.3441,1700.3529,499.6473,1677.5472,491.2963z M2113.3071,479.1121 c-67.6387,30.356-99.0525,38.782-175.2646,47.0112c-71.197,7.688-83.0129,7.8141-118.3934,1.27 c-61.5293-11.381-83.1272-16.6423-83.1272-20.2492c0-2.1279,7.3682-7.7999,16.3735-12.6049 c13.9265-7.4433,28.4188-8.5349,96.9818-7.3928c111.0011,1.8487,160.9403-7.0626,237.9805-42.464 c34.1804-15.7075,37.6448-16.3447,55.418-10.1972C2175.4268,445.6067,2170.0186,453.66,2113.3071,479.1121z M2163.4929,425.47 c-12.6399-9.5945-10.9321-16.8243,6.0474-25.6046c19.4177-10.041,26.8806-9.6953,41.2117,1.9089 c11.6782,9.4561,11.7114,9.7488,2.2964,20.152C2202.1226,433.9993,2177.0874,435.7896,2163.4929,425.47z M2276.4929,502.6288 c-4.8521-0.55-32.4783-24.3724-68.9172-50.6397l21.9138-19.1385c23.2615-20.3156,26.719-36.902,8.2632-39.6362 c-11.7024-1.7333-26.0134-13.6248-34.9961-20.4454c13.4063-10.438,27.1902-20.4015,50.5259-44.9264 c19.8376-20.8482,20.7988-21.2498,29.051-12.1307c13.3525,14.7543,69.1384,103.2817,67.6448,107.3462 C2348.4353,427.2561,2281.2949,503.1682,2276.4929,502.6288z M2462.7813,108.2037l14.2173-20.4878 c18.303-26.3745,43.3638-50.0825,49.157-46.502c3.7866,2.34,47.4153,63.798,58.1611,81.9286 c4.2402,7.1564-7.9617,16.1141-36.2292,53.6617c-0.5063,0.5063-22.0098,28.9692-25.8118,28.9692 C2517.1846,205.7734,2500.4382,175.155,2462.7813,108.2037z M2466.4797,309.5539c22.292-20.1767,42.2036-79.0604,67.0005-48.4365 c9.2358,11.4093,15.3801,24.759,23.1956,37.0889c5.6038,8.8405,16.1558,19.816,16.1558,30.9098 c0,10.8462-49.999,67.8251-61.3459,67.9843c-12.0044,0.1673-37.2241-53.5262-47.9854-64.477 C2454.7212,323.6901,2455.2322,319.7326,2466.4797,309.5539z M2433.2402,504.9602c-55.1973-76.1982-12.3528-28.5594-57.187-81.8407 c8.4033-9.4177,55.7146-60.822,55.7146-68.8225c0-13.1817,15.0764-12.2033,23.3887,1.5178 c13.3477,22.0367,42.144,63.1587,42.02,69.4799C2497.0569,431.7773,2466.572,461.8871,2433.2402,504.9602z M2557.7188,740.6841 c0,5.3229-44.1646,64.6123-52.4785,64.6123c-17.9673,0-39.1956-55.0988-54.2822-76.3285 c-4.9285-6.9334-1.9919-12.6738,17.678-34.5515c12.9731-14.4296,23.5886-28.2576,23.5886-30.7293 c0-5.8586,20.1521-6.1495,20.1521,0.4262C2512.3767,671.1034,2557.7188,734.8608,2557.7188,740.6841z M2555.6138,554.3674 c-27.0891,22.3283-46.231,59.4851-53.0388,59.4851c-6.4707,0-35.6958-70.2844-47.6902-80.2393 c-4.4009-3.6525-8.0022-8.894-8.0022-11.6473c0-6.4968,60.1277-74.3679,65.8833-74.3679c2.4146,0,8.1248,7.3682,12.6887,16.3735 c9.958,19.6466,35.5144,56.6338,48.2546,75.4804L2555.6138,554.3674z M2584.8374,514.3198 c-27.6011-32.8011-27.1191-34.6743-27.1191-36.1714c0-5.6943-35.0818-46.4498-35.2175-51.7946 c-0.0266-1.9852,7.3196-11.191,16.325-20.4577c24.2319-24.933,36.7039-40.6676,40.9941-51.7202 c3.626-9.3411,4.4009-9.1585,14.793,3.4858c17.3108,21.0622,48.7517,73.1533,48.7517,80.7712 C2643.3645,447.5202,2625.3496,463.668,2584.8374,514.3198z M3416.9043,311.571c12.6069,0,29.4915,19.8186,37.9236,28.6199 c-35.0247,24.2711-40.5945,26.6915-43.4382,26.5388c-9.6111-0.5234-42.5518-16.0556-42.5518-20.0647 C3368.8379,338.9529,3406.3413,311.571,3416.9043,311.571z M3351.7996,367.0083c12.6492,0.0166,51.5251,18.3913,46.5752,22.0136 c0.5046,0-18.9561,10.9182-19.4602,11.2002c-15.8196,8.8485-20.1792,9.2212-42.3816,3.6192 c-13.6116-3.4341-26.8137-8.3092-29.3376-10.8331C3300.6624,386.4752,3334.0981,367.0083,3351.7996,367.0083z M3061.519,449.6866 c164.1868,9.0736,178.5117,11.1486,156.8813,22.7233c-6.6008,3.5325-44.6196,6.6887-95.2715,7.9094 c-54.8013,1.3204-106.6426-2.938-159.189-18.5186c-7.4136-2.198-36.627-7.1837-40.8408-14.0009 c-6.5078-10.5311,98.719-48.3205,154.8574-55.6125c43.5247-5.6524,113.0933-5.891,127.0652-0.4336 c8.5515,3.3394,7.1113,4.856-9.9634,10.4911c-46.6648,15.4007-183.4055,22.6713-194.8547,34.1204 C2991.9197,444.6491,2999.272,446.2469,3061.519,449.6866z M3224.3467,440.8829c-19.8955-3.2342-37.5447-7.2821-39.2197-8.9949 c-3.7424-3.8253,52.4568-19.7744,81.4949-23.128c21.6865-2.5042,66.95,10.6756,66.95,19.4946 C3333.5718,437.3742,3289.7395,451.5132,3224.3467,440.8829z M3053.9631,333.4494c88.177-13.3035,241.0161-1.6949,262.6614,19.9497 c1.8645,1.8653-7.6228,8.2636-21.0845,14.218c-21.6011,9.5551-27.166,10.1437-47.3801,5.011 c-27.7607-7.049-144.1794-7.6991-179.0833-0.9994c-64.8953,12.4567-96.7229,23.1335-144.3264,48.4183h0.0012 c-41.1477,21.8566-49.7334,9.2-67.2708-8.485C2904.406,376.7631,3011.2656,339.8908,3053.9631,333.4494z M2788.9644,521.1566 c0-0.5038-31.9834,32.2391-38.0317,32.2391c-8.8892,0-41.3005-60.612-46.8328-65.4942 c-8.1216-7.1653-30.5073-40.3865-30.5073-45.2751c0-7.5729,50.366-67.7931,63.303-84.7846 c7.9351-10.4225,17.6921,7.0793,80.2805,54.6107l-45.3423,40.6399c5.8105,4.7446,28.7297,24.7085,36.2285,24.7085 C2824.249,477.8686,2818.1538,491.7053,2788.9644,521.1566z M2820.9539,465.065c-19.6184-8.2735-20.1909-12.1252-4.0579-27.2816 c20.7273-19.4714,39.1851-3.4877,59,12.5557C2839.7681,470.6018,2839.5166,472.8934,2820.9539,465.065z M3322.1748,499.4228 c-2.3591,7.0779-80.27,32.8584-101.0291,33.4304c-7.8025,0.2153-18.0046,2.3492-22.6711,4.7428 c-9.3953,4.8185-106.4275,9.9039-141.9929,7.442c-89.4995-6.1957-191.3044-55.3161-194.4106-58.4224 c-1.5037-1.5037,5.2039-8.7888,14.906-16.1884c30.4272-23.2085,9.4214-3.2086,135.7441,25.0972 c55.281,12.3866,179.3752,8.3516,220.0195-7.1542c15.2007-5.7994,33.6277-10.5441,40.9487-10.5441 C3292.4043,477.8261,3324.5947,492.1647,3322.1748,499.4228z M3355.2527,487.1408c-7.9382-1.4901-46.8704-21.6988-46.8704-24.3291 c0-1.4729,11.6638-8.0293,25.9202-14.5698c24.6519-11.3091,26.7466-11.4967,42.823-3.8302 c9.2969,4.4335,16.9031,9.7974,16.9031,11.9204C3394.0286,461.6121,3360.4661,488.1201,3355.2527,487.1408z M3470.3735,510.7848 c-14.8904,16.067-12.2388,13.7487-12.7424,13.7487c-21.8262,23.5519-31.5383,12.3073-78.8975-24.0363 c7.2554-6.0457,31.0581-27.4237,40.4849-27.4237C3428.738,473.0932,3462.2446,503.7562,3470.3735,510.7848z M3439.6204,434.8726 v-0.0012c-18.1938,9.41-24.1021,9.3774-41.814-0.2318c-17.4866-9.4863-17.3545-12.7875,1.0554-26.3985 c35.0315-25.9013,31.584,4.0903,48.6821,4.0903C3459.9988,412.3313,3454.8413,427.0013,3439.6204,434.8726z M3617.7559,460.198 c-34.7434,20.3617-36.8164,33.0268-44.7383,32.2003c-2.8479-0.2982-17.9023-13.3342-33.4536-28.9686 c-32.583-32.7568-41.7578-37.619-51.6187-44.3422c8.4426-8.2671,51.4929-52.0984,59.7346-52.0984 c14.0571,0,49.0342,43.3618,78.6328,56.463C3647.1514,432.6759,3644.3745,444.5981,3617.7559,460.198z M3911.6838,457.5972 c1.8264-1.8264-53.3362,33.3481-180.1084-6.4919c-35.4309-11.135-37.0569-12.2648-26.0916-18.1361 c12.2107-6.5386,50.4421-17.0636,82.7729-22.7879c33.0879-5.8584,113.1475-3.8314,125.6477,3.1808 C3940.8652,428.4865,3940.03,445.1092,3911.6838,457.5972z M3988.27,438.3375c-10.4824-8.4881-11.1313-10.8134-5.0601-18.1287 c4.4114-5.316,12.6621-7.8362,22.5073-6.8756c13.575,1.3253,15.5435,3.4316,15.5435,16.6312 C4021.2607,448.7979,4005.9788,452.6766,3988.27,438.3375z"/> </g> </svg>